<?xml version="1.0" standalone="no"?>
<!DOCTYPE svg PUBLIC "-//W3C//DTD SVG 20010904//EN"
 "http://www.w3.org/TR/2001/REC-SVG-20010904/DTD/svg10.dtd">
<svg version="1.0" xmlns="http://www.w3.org/2000/svg"
 width="1500.000000pt" height="1500.000000pt" viewBox="0 0 1500.000000 1500.000000"
 preserveAspectRatio="xMidYMid meet">
<metadata>
Created by potrace 1.11, written by Peter Selinger 2001-2013
</metadata>
<g transform="translate(0.000000,1500.000000) scale(0.100000,-0.100000)"
fill="#000000" stroke="none">
<path d="M8487 13744 c-5 -5 -130 -12 -334 -18 -29 0 -53 -3 -53 -6 0 -3 -15
-6 -33 -6 -34 -2 -192 -13 -192 -14 0 0 -63 -3 -140 -6 -180 -7 -198 -9 -213
-18 -7 -4 -12 -2 -12 4 0 7 -5 8 -12 3 -19 -12 -288 -10 -288 2 0 5 -5 3 -10
-5 -5 -8 -10 -10 -10 -5 0 13 -27 12 -100 -4 -53 -11 -116 -20 -172 -24 -15
-1 -30 -5 -34 -9 -3 -4 -14 -3 -24 2 -10 5 -20 7 -23 4 -3 -3 -42 -7 -86 -9
-44 -2 -88 -8 -98 -13 -12 -7 -25 -7 -37 0 -14 8 -17 7 -12 -1 5 -7 -5 -11
-31 -12 -21 -1 -42 -1 -47 0 -5 1 -12 -3 -16 -8 -3 -6 -15 -12 -25 -14 -11 -1
-26 -7 -34 -11 -11 -7 -13 -5 -8 10 7 18 7 18 -8 0 -8 -11 -23 -21 -33 -23 -9
-2 -21 -5 -27 -7 -5 -1 -30 -8 -54 -15 -24 -7 -69 -23 -99 -37 -30 -13 -58
-22 -62 -19 -5 3 -11 -4 -15 -15 -3 -11 -13 -21 -21 -21 -24 -2 -36 -7 -148
-58 -38 -17 -75 -31 -82 -31 -8 0 -14 -3 -14 -8 0 -4 -15 -13 -32 -21 -18 -8
-35 -18 -38 -21 -3 -4 -24 -17 -47 -29 -24 -12 -43 -26 -43 -32 0 -6 -4 -8 -9
-5 -9 6 -28 -8 -100 -74 -21 -20 -51 -44 -66 -55 -15 -11 -39 -29 -54 -41 -14
-12 -37 -27 -51 -34 -14 -7 -31 -22 -39 -32 -7 -11 -19 -17 -27 -14 -7 3 -16
-4 -19 -15 -4 -10 -11 -16 -17 -13 -6 4 -6 10 1 17 6 6 11 15 11 20 0 4 -12
-5 -26 -20 -14 -15 -30 -28 -35 -28 -5 0 -9 -3 -9 -7 0 -5 0 -11 0 -15 0 -3
11 4 25 17 14 13 25 19 25 13 0 -6 -7 -14 -16 -17 -8 -3 -13 -10 -10 -15 4 -5
-5 -8 -19 -6 -21 2 -23 0 -13 -12 6 -8 7 -13 2 -12 -22 4 -35 -2 -28 -13 5 -8
0 -9 -16 -5 -17 4 -20 3 -12 -5 8 -8 0 -20 -31 -42 -23 -17 -51 -39 -61 -48
-11 -10 -26 -18 -33 -18 -7 0 -13 -4 -13 -9 0 -5 -9 -13 -20 -16 -11 -4 -18
-11 -15 -16 4 -5 1 -9 -5 -9 -6 0 -17 -6 -24 -12 -7 -7 -25 -22 -41 -33 -15
-11 -35 -28 -45 -38 -36 -37 -82 -65 -98 -60 -11 5 -13 3 -7 -7 6 -10 4 -12
-9 -7 -9 4 -15 3 -12 -2 3 -5 -16 -52 -43 -105 -26 -52 -46 -98 -43 -101 3 -3
1 -5 -4 -5 -11 0 -41 -61 -47 -95 -2 -11 -7 -27 -10 -35 -4 -8 -9 -26 -11 -40
-5 -25 -7 -33 -26 -105 -6 -22 -13 -50 -15 -62 -3 -12 -9 -33 -14 -45 -5 -13
-9 -26 -10 -30 0 -5 -1 -9 -2 -10 0 -2 -2 -10 -4 -18 -2 -8 -8 -29 -13 -47 -6
-17 -8 -34 -4 -37 3 -3 1 -6 -5 -6 -6 0 -13 -8 -16 -17 -3 -10 -17 -48 -30
-85 -14 -36 -23 -69 -19 -72 3 -3 1 -6 -4 -6 -5 0 -10 -8 -11 -19 -2 -23 -40
-107 -65 -143 -11 -16 -16 -28 -12 -28 4 0 -3 -9 -16 -20 -13 -11 -19 -20 -15
-20 4 0 1 -8 -8 -18 -10 -10 -14 -22 -10 -25 3 -4 0 -7 -7 -7 -7 0 -11 -3 -7
-6 3 -4 -5 -27 -19 -51 -13 -24 -22 -48 -19 -53 3 -4 -2 -11 -11 -14 -8 -3
-12 -10 -9 -16 3 -5 1 -10 -4 -10 -6 0 -11 -6 -11 -13 0 -7 -9 -29 -20 -50
-11 -20 -20 -38 -19 -39 0 -2 -5 -16 -11 -33 -7 -16 -13 -34 -14 -40 -3 -10
-7 -21 -22 -60 -4 -11 -8 -23 -9 -27 -2 -5 -3 -9 -4 -10 -2 -2 -5 -14 -7 -28
-4 -20 -17 -71 -29 -110 -1 -3 -6 -16 -12 -30 -6 -14 -14 -41 -19 -60 -12 -51
-11 -50 -14 -52 -1 -2 -4 -16 -6 -33 -3 -16 -7 -37 -11 -45 -3 -8 -5 -23 -4
-34 2 -10 -2 -16 -7 -12 -5 3 -7 -5 -4 -19 2 -14 0 -31 -5 -38 -5 -6 -8 -22
-7 -34 1 -15 -4 -23 -15 -23 -13 0 -13 -2 -2 -9 9 -6 10 -11 3 -15 -6 -4 -9
-13 -5 -21 3 -8 1 -15 -5 -15 -6 0 -8 -10 -4 -22 3 -14 2 -19 -6 -14 -9 5 -9
1 -3 -16 5 -15 5 -31 -1 -41 -5 -9 -7 -21 -3 -26 3 -5 1 -11 -3 -13 -8 -3 -39
-100 -47 -143 -13 -81 -18 -101 -22 -109 -3 -4 -7 -20 -9 -35 -8 -66 -39 -186
-55 -214 -5 -10 -7 -22 -4 -27 4 -6 1 -10 -4 -10 -6 0 -11 -7 -11 -15 0 -14
-30 -35 -60 -43 -40 -9 -242 6 -320 25 -14 3 -81 7 -150 9 -69 2 -137 6 -153
9 -15 2 -37 6 -50 9 -12 2 -38 7 -57 10 -83 15 -97 18 -140 33 -68 23 -214 95
-223 110 -4 7 -19 13 -32 13 -13 0 -27 5 -30 11 -4 6 -13 8 -20 5 -7 -2 -18 1
-24 7 -6 6 -11 7 -11 3 0 -5 -7 -3 -15 4 -8 7 -15 10 -15 7 0 -3 -23 1 -50 9
-28 8 -54 12 -59 9 -5 -3 -11 -1 -13 4 -1 6 -14 12 -28 15 -48 10 -65 14 -110
29 -65 22 -134 41 -142 39 -5 -1 -8 2 -8 6 0 4 -8 9 -17 10 -19 2 -54 9 -63
12 -3 1 -8 2 -13 1 -4 0 -7 3 -7 7 0 5 -10 8 -23 7 -12 -1 -28 2 -34 7 -7 6
-20 8 -28 4 -8 -3 -15 -2 -15 3 0 5 -13 11 -28 14 -21 4 -34 18 -52 54 -14 26
-29 51 -33 54 -5 3 -7 8 -6 10 5 7 -25 69 -33 69 -5 0 -8 4 -8 10 0 12 -28 47
-55 69 -11 9 -50 46 -87 82 -37 37 -70 64 -73 61 -3 -3 -5 0 -5 7 0 7 -5 9
-12 5 -9 -5 -9 -2 1 9 12 15 11 17 -13 17 -24 0 -31 10 -26 35 1 6 -4 4 -11
-3 -11 -10 -16 -8 -27 10 -7 13 -11 15 -8 6 3 -12 1 -15 -9 -11 -8 3 -12 9 -9
14 3 5 -2 9 -10 9 -9 0 -16 5 -16 10 0 6 -4 10 -9 10 -5 0 -50 39 -100 88 -73
71 -102 91 -153 110 -35 13 -70 28 -79 32 -28 14 -235 8 -286 -8 -27 -9 -50
-18 -53 -22 -3 -4 -27 -20 -55 -35 -65 -37 -125 -82 -187 -140 -15 -14 -30
-25 -33 -25 -3 0 -15 -8 -26 -19 -22 -21 -162 -93 -153 -80 3 5 0 9 -5 9 -6 0
-11 -4 -11 -9 0 -5 -12 -17 -27 -27 -25 -16 -26 -16 -14 -1 12 15 12 17 -3 11
-9 -3 -16 -10 -16 -16 0 -5 -4 -7 -9 -3 -6 3 -14 -2 -19 -11 -5 -9 -12 -16
-15 -16 -22 0 -47 -12 -47 -24 0 -8 -6 -11 -17 -7 -10 4 -14 2 -9 -5 3 -6 -3
-13 -16 -17 -13 -4 -33 -17 -46 -28 l-22 -21 0 -542 c1 -417 3 -544 13 -547 9
-4 9 -6 0 -6 -7 -1 -13 -6 -13 -12 0 -5 6 -7 12 -3 9 5 9 2 -1 -9 -12 -15 -11
-17 5 -17 14 0 15 -3 6 -12 -13 -13 -16 -29 -4 -27 4 1 16 0 27 -1 17 -2 17
-3 -5 -10 -19 -6 -20 -8 -6 -9 16 -1 17 -3 5 -18 -10 -11 -10 -14 -1 -9 8 5
12 0 12 -16 0 -23 30 -79 56 -105 19 -20 18 -4 -2 18 -12 13 -12 19 -3 25 8 5
10 3 4 -6 -6 -9 -4 -12 6 -8 10 4 14 -2 16 -19 0 -14 9 -33 19 -42 17 -15 17
-15 3 3 -13 18 -13 18 8 6 12 -8 19 -18 17 -22 -3 -4 1 -8 9 -8 8 0 26 -12 41
-26 14 -15 26 -23 26 -18 0 5 4 4 8 -2 8 -13 137 -72 172 -80 42 -9 92 -15
150 -18 30 -2 96 -7 145 -12 50 -5 153 -7 230 -7 77 1 212 3 300 4 181 3 263
-1 286 -12 8 -4 47 -11 85 -14 89 -9 119 -12 119 -15 0 -3 27 -8 72 -14 18 -2
45 -8 60 -14 16 -5 37 -13 48 -18 33 -12 45 -13 39 -3 -3 5 -9 7 -13 5 -4 -3
-8 1 -8 8 0 10 6 10 24 2 12 -6 23 -16 23 -23 0 -6 4 -15 10 -18 6 -4 7 1 3
11 -5 14 -3 15 14 6 11 -6 23 -8 27 -5 3 3 6 1 6 -5 0 -6 8 -10 18 -10 9 0 31
-5 47 -12 17 -7 36 -12 42 -11 7 1 13 -2 13 -8 0 -5 11 -8 25 -7 13 2 22 0 20
-4 -3 -5 2 -11 11 -14 10 -4 13 -2 8 6 -5 7 -3 8 7 2 17 -10 28 -12 99 -19 65
-7 111 -14 120 -20 4 -3 25 -7 45 -11 36 -5 49 -8 105 -21 14 -3 34 -6 45 -8
11 -1 27 -5 35 -8 23 -8 160 -25 260 -31 30 -2 55 -4 55 -6 0 -1 11 -3 24 -6
14 -2 31 -10 40 -17 12 -10 13 -9 7 1 -7 11 2 12 45 7 30 -4 73 -13 97 -21 23
-8 47 -12 52 -9 5 3 11 1 15 -5 3 -5 14 -10 24 -10 10 0 24 -7 31 -15 7 -8 15
-13 19 -11 9 4 41 -31 33 -38 -3 -3 4 -6 15 -6 32 0 137 -102 152 -148 20 -59
11 -160 -18 -200 -12 -18 -19 -32 -15 -32 3 0 1 -7 -6 -15 -7 -8 -9 -15 -4
-15 5 0 2 -5 -6 -10 -11 -8 -12 -12 -3 -18 13 -8 10 -36 -11 -112 -4 -14 -8
-36 -10 -50 -1 -14 -9 -38 -17 -55 -9 -17 -15 -52 -13 -80 1 -27 -2 -59 -6
-70 -4 -11 -9 -24 -10 -30 -1 -5 -10 -30 -20 -55 -10 -25 -19 -49 -20 -55 -5
-27 -44 -101 -58 -112 -11 -9 -12 -13 -3 -13 11 0 11 -3 1 -15 -7 -8 -10 -15
-7 -15 3 0 0 -20 -7 -45 -8 -25 -12 -45 -10 -45 3 0 -2 -14 -11 -30 -9 -16
-13 -30 -9 -30 3 0 0 -10 -8 -22 -8 -13 -20 -50 -28 -83 -7 -33 -15 -64 -16
-70 -3 -10 -12 -45 -19 -75 -2 -8 -4 -15 -5 -15 -1 0 -3 -7 -5 -15 -2 -8 -6
-26 -9 -40 -3 -14 -12 -45 -21 -70 -22 -64 -22 -64 -23 -74 0 -5 -5 -12 -11
-15 -6 -4 -12 -19 -13 -34 -1 -15 -5 -27 -9 -27 -4 0 -6 -8 -5 -17 2 -9 -3
-28 -11 -42 -7 -15 -13 -31 -13 -38 0 -6 -5 -24 -12 -40 -6 -15 -12 -31 -13
-35 -2 -5 -3 -9 -5 -10 -2 -4 -11 -41 -12 -55 -1 -7 -5 -13 -10 -13 -4 0 -7
-3 -6 -7 2 -11 -13 -86 -21 -98 -3 -5 -4 -20 -2 -32 1 -13 -1 -23 -6 -23 -21
0 -18 -507 3 -541 5 -8 24 -142 25 -179 0 -8 7 -46 14 -85 28 -135 25 -117 40
-305 3 -30 7 -91 11 -135 9 -113 6 -189 -9 -212 -5 -8 -3 -13 5 -13 10 0 10
-2 1 -8 -7 -4 -13 -23 -14 -42 -2 -19 -6 -40 -10 -45 -12 -16 -19 -236 -8
-230 5 4 6 12 2 18 -4 7 0 6 10 -2 18 -14 23 -26 8 -16 -5 3 -13 0 -18 -7 -14
-23 -12 -38 5 -38 13 0 14 -2 4 -8 -18 -12 5 -112 27 -113 9 0 11 -3 5 -5 -16
-7 -5 -46 11 -40 8 3 11 -2 8 -15 -3 -10 0 -26 7 -34 7 -8 9 -15 6 -15 -4 0
-2 -9 4 -20 7 -12 16 -18 23 -13 7 4 6 0 -2 -10 -12 -15 -12 -20 5 -33 10 -9
13 -12 5 -8 -11 5 -13 3 -8 -10 4 -10 7 -22 7 -27 0 -6 4 -7 10 -4 5 3 7 0 4
-9 -3 -8 2 -25 11 -39 8 -13 18 -35 20 -48 3 -13 9 -25 15 -27 6 -2 8 -8 4
-13 -3 -5 0 -9 6 -9 6 0 9 -4 5 -9 -3 -5 0 -13 6 -16 5 -4 8 -14 5 -22 -4 -9
-2 -11 6 -7 7 5 9 0 6 -14 -4 -12 -2 -20 3 -16 8 4 14 -25 10 -48 0 -5 5 -8
11 -8 9 0 8 -4 -2 -10 -8 -5 -10 -10 -5 -10 6 0 11 -10 12 -22 1 -11 8 -25 15
-29 9 -6 8 -9 -7 -9 -14 0 -16 -3 -8 -11 6 -6 9 -18 6 -25 -3 -8 -1 -14 4 -14
5 0 9 -12 9 -27 -1 -17 4 -27 11 -25 17 3 17 -15 1 -21 -10 -4 -10 -8 1 -15
11 -8 11 -10 0 -15 -10 -4 -10 -6 -1 -6 6 -1 12 -9 12 -19 0 -10 6 -24 12 -31
11 -11 10 -12 -2 -6 -12 6 -13 5 -3 -6 7 -7 13 -21 13 -32 0 -10 4 -15 10 -12
6 3 7 -1 4 -9 -4 -9 1 -18 10 -22 9 -3 16 -10 16 -16 0 -5 -6 -6 -12 -3 -7 4
-4 -2 8 -12 11 -10 20 -26 18 -36 -2 -15 7 -21 27 -19 4 1 5 -7 2 -18 -4 -15
-1 -18 16 -15 14 2 19 0 15 -7 -4 -6 1 -17 10 -24 10 -7 17 -15 17 -18 -2 -19
0 -27 7 -22 4 2 9 -5 9 -16 1 -12 10 -28 19 -37 16 -14 17 -14 8 -1 -6 10 -3
10 7 -2 9 -9 19 -15 23 -13 3 3 2 0 -4 -7 -12 -14 35 -49 55 -42 7 3 15 -2 19
-12 5 -13 9 -14 21 -4 11 9 15 9 15 1 0 -7 4 -10 9 -7 5 4 12 0 15 -6 5 -11 7
-11 12 0 3 6 11 9 17 5 7 -4 23 -8 37 -9 14 -1 35 -2 47 -3 12 0 28 -8 36 -16
12 -11 17 -12 20 -2 4 9 6 9 6 -1 1 -7 6 -10 13 -6 7 4 8 3 4 -4 -5 -8 0 -11
11 -10 36 3 53 -2 53 -16 0 -8 4 -18 10 -21 5 -3 7 0 4 8 -3 8 2 14 11 14 18
0 18 -2 6 -26 -7 -13 -6 -18 4 -18 7 0 11 7 7 15 -4 11 -1 13 8 7 9 -5 11 -4
6 3 -4 7 -1 12 8 12 9 0 16 -4 16 -9 0 -5 11 -9 25 -10 49 -3 54 -4 48 -14 -4
-6 0 -8 10 -4 10 3 17 2 17 -3 0 -6 -5 -10 -12 -10 -6 0 -8 -3 -5 -6 4 -4 13
-1 21 5 21 17 61 4 46 -14 -8 -10 -8 -15 1 -21 7 -4 9 -3 6 3 -4 6 0 16 8 23
9 8 15 8 15 2 0 -6 8 -9 18 -8 9 2 23 -4 30 -13 12 -14 13 -14 7 3 -6 19 -5
19 13 3 11 -10 23 -17 28 -16 11 3 40 -7 77 -26 15 -8 27 -10 27 -4 0 6 5 7
10 4 6 -4 7 -11 4 -17 -4 -6 -2 -8 3 -5 6 4 34 0 64 -9 29 -9 60 -18 68 -20 9
-2 41 -11 71 -19 30 -8 64 -17 75 -20 11 -2 35 -8 53 -14 17 -5 32 -7 32 -4 0
3 7 0 15 -7 8 -7 15 -9 15 -6 0 4 17 -6 37 -21 20 -15 34 -21 29 -13 -4 9 -2
8 7 -2 8 -10 17 -15 20 -11 4 3 7 1 7 -5 0 -7 5 -12 11 -12 23 0 110 -64 105
-77 -3 -7 -2 -12 2 -12 4 1 14 1 22 0 13 -1 13 -2 0 -11 -13 -8 -13 -10 1 -10
9 0 24 -10 35 -22 l19 -23 -25 20 -25 20 19 -22 c11 -13 23 -23 28 -23 9 0 24
-11 63 -48 14 -13 25 -19 25 -15 0 4 7 -3 16 -16 11 -15 23 -21 36 -18 16 5
17 3 6 -11 -7 -9 -8 -13 -2 -9 6 4 21 -2 34 -13 12 -10 28 -16 36 -13 8 3 14
0 14 -6 0 -6 11 -11 24 -11 14 0 28 -5 31 -11 4 -5 12 -8 18 -6 20 7 89 -25
117 -55 15 -15 29 -26 32 -23 2 3 15 -6 28 -20 13 -14 27 -25 32 -25 10 0 16
-5 68 -50 19 -16 38 -30 43 -30 4 0 6 -4 3 -8 -2 -4 9 -14 25 -21 24 -11 28
-17 24 -41 -5 -29 18 -50 31 -28 5 7 2 8 -6 3 -9 -6 -11 -4 -5 5 5 8 4 11 -2
7 -5 -3 -10 0 -10 8 0 13 3 12 18 -1 14 -12 16 -21 9 -35 -13 -24 -12 -39 1
-16 12 20 30 23 27 5 -2 -7 3 -12 10 -10 8 1 11 -2 7 -8 -3 -5 0 -13 9 -16 19
-7 28 -32 14 -40 -7 -5 -8 -2 -3 6 6 9 4 11 -5 5 -9 -6 -11 -4 -5 5 6 9 4 11
-5 5 -9 -6 -11 -4 -5 6 7 12 6 12 -6 1 -12 -11 -11 -15 4 -23 10 -6 14 -15 10
-22 -5 -9 -3 -9 8 -1 8 6 21 11 30 11 15 0 19 -10 21 -54 0 -12 8 -23 19 -26
13 -4 17 -11 13 -24 -4 -11 -3 -14 3 -6 6 8 12 8 25 -1 10 -7 16 -15 15 -17
-2 -2 7 -14 20 -26 13 -12 23 -18 23 -13 0 6 5 10 11 10 5 0 8 -4 4 -9 -3 -5
0 -13 7 -17 7 -4 10 -4 6 1 -4 4 -2 15 5 23 9 12 9 14 0 9 -7 -5 -21 1 -33 13
-11 11 -20 16 -20 10 0 -5 -8 -2 -18 8 -12 12 -14 20 -7 28 7 8 13 6 23 -7 7
-11 18 -19 23 -19 6 0 25 -11 43 -25 18 -14 36 -22 41 -17 5 4 5 1 1 -6 -4 -7
-12 -9 -18 -6 -7 5 -8 2 -3 -6 5 -9 4 -11 -4 -6 -6 4 -9 12 -6 17 4 5 1 9 -4
9 -14 0 -8 -37 7 -50 7 -6 10 -7 7 -4 -6 8 14 34 25 34 4 0 11 -12 14 -26 6
-24 8 -25 20 -9 12 17 14 17 28 -3 8 -12 18 -19 21 -15 4 3 7 -1 7 -10 0 -9 5
-17 11 -17 5 0 7 5 3 12 -4 7 6 3 22 -8 16 -11 46 -27 67 -37 21 -9 35 -22 32
-27 -3 -6 1 -7 9 -4 9 3 16 1 16 -5 0 -6 9 -11 20 -11 11 0 20 -5 20 -11 0 -5
-6 -7 -12 -3 -9 5 -9 3 1 -9 12 -15 31 -15 31 -1 0 3 -5 2 -12 -2 -7 -4 -8 -3
-4 5 12 18 27 1 21 -22 -5 -17 -4 -19 4 -7 6 8 11 10 11 4 0 -14 31 -14 49 0
12 9 13 7 8 -8 -6 -14 -4 -17 8 -12 8 3 15 0 15 -7 0 -8 3 -9 8 -1 4 6 19 10
34 9 16 -1 25 2 21 8 -4 6 0 8 10 4 9 -3 18 -1 21 6 3 9 5 8 5 -1 1 -8 6 -10
14 -5 6 4 41 9 77 10 36 1 109 3 162 5 63 1 94 6 91 13 -3 5 0 4 8 -2 16 -15
53 -17 44 -3 -4 6 -11 7 -17 4 -7 -5 -8 -2 -4 5 6 9 13 8 27 -5 11 -9 21 -15
23 -13 1 2 9 13 15 24 7 11 10 13 8 4 -3 -9 1 -16 9 -16 7 0 11 4 8 9 -3 4 3
8 13 8 15 0 16 2 3 10 -11 7 -5 8 19 3 26 -5 32 -3 26 7 -5 9 -2 10 14 5 14
-4 21 -2 21 7 0 10 3 9 10 -2 7 -12 10 -12 10 -1 0 7 6 11 14 8 7 -3 19 0 25
6 9 9 14 8 21 -3 6 -9 10 -10 10 -3 0 6 11 10 25 8 14 -1 25 2 25 7 0 5 4 6
10 3 5 -3 24 2 42 12 38 20 205 28 226 11 6 -6 12 -7 12 -3 0 5 10 0 22 -11
14 -13 19 -14 14 -4 -5 9 -2 8 7 -2 8 -10 17 -15 20 -11 4 3 7 1 7 -7 0 -10 4
-10 17 1 15 12 16 12 8 -1 -7 -12 -6 -13 6 -3 8 6 31 10 52 9 20 -1 37 2 37 5
0 4 15 4 33 0 18 -5 40 -7 50 -5 9 1 17 -1 17 -5 0 -4 14 -8 32 -9 17 -2 37
-7 43 -12 6 -5 20 -11 31 -13 10 -2 28 -8 39 -14 11 -6 26 -8 33 -6 6 3 12 1
12 -4 0 -5 9 -9 20 -9 11 0 20 4 20 8 0 5 8 4 18 -1 10 -5 24 -6 30 -2 10 6
57 7 57 1 0 -2 96 -8 170 -11 28 -1 57 3 115 17 14 3 35 7 46 9 12 2 31 8 43
14 11 7 21 9 21 6 0 -3 10 0 23 7 21 11 27 14 60 21 6 1 17 5 22 9 6 3 26 9
45 14 19 4 37 8 40 9 9 3 75 15 100 19 14 3 25 5 25 6 0 1 11 3 25 5 111 16
160 27 166 36 3 5 12 9 21 9 51 0 320 113 358 150 40 39 80 93 84 113 0 4 9
15 19 26 26 29 52 64 52 73 0 4 14 21 30 38 17 17 30 35 30 41 0 6 5 7 10 4 6
-3 10 -1 10 6 0 7 17 29 38 50 49 51 74 82 132 169 8 12 20 28 27 35 7 7 9 15
6 19 -4 3 -1 6 5 6 7 0 12 7 12 15 0 8 5 15 10 15 6 0 10 5 10 11 0 20 62 91
192 221 71 70 128 132 128 138 0 6 5 8 10 5 6 -3 10 0 10 7 0 7 11 22 25 32
14 10 25 23 25 27 0 5 8 18 18 28 32 35 58 66 92 111 45 58 81 99 103 119 9 8
17 19 17 23 0 11 37 47 42 42 3 -2 11 7 18 21 7 14 18 25 24 25 6 0 28 18 49
40 20 22 37 37 37 34 0 -3 10 5 23 18 44 46 110 97 118 92 5 -3 9 0 9 6 0 6 4
9 9 6 5 -3 12 1 15 10 4 9 9 15 12 12 2 -3 19 8 35 23 17 16 37 29 44 29 7 0
15 7 19 15 3 8 15 15 26 15 11 0 20 4 20 9 0 5 9 13 20 16 11 3 26 12 33 18 7
7 20 17 29 22 8 6 44 29 79 52 35 24 70 43 77 43 6 0 12 5 12 10 0 6 3 9 8 8
4 -1 21 4 37 11 17 7 32 12 34 11 2 -1 7 2 10 7 5 8 118 66 131 68 3 1 28 11
55 24 42 19 53 20 70 10 18 -11 18 -10 7 3 -10 13 -7 17 20 28 18 6 49 20 70
30 27 14 39 15 48 6 10 -8 11 -7 6 9 -4 11 -4 16 0 12 4 -4 16 1 27 10 11 10
17 13 14 6 -4 -6 0 -14 10 -17 11 -3 9 -4 -6 -3 -13 1 -26 -3 -28 -9 -7 -20
51 -11 64 11 9 14 12 16 13 5 0 -13 1 -13 10 0 8 13 11 13 19 1 7 -11 12 -10
28 6 17 17 21 18 29 5 8 -13 11 -13 22 1 10 12 10 18 -3 31 -9 9 -13 16 -8 16
5 0 13 -4 19 -10 6 -6 15 -5 24 1 12 9 12 10 -3 5 -11 -4 -16 -2 -12 5 4 5 2
16 -5 24 -8 9 -8 15 0 20 6 4 9 1 8 -7 -2 -7 3 -12 10 -10 8 1 11 -2 7 -8 -3
-5 -1 -10 4 -10 6 0 11 7 11 15 0 8 -5 15 -12 15 -6 0 -8 3 -5 6 4 4 15 1 24
-7 10 -7 15 -10 12 -6 -4 5 12 27 35 49 22 23 35 37 27 33 -9 -5 -12 -4 -7 3
4 7 11 12 17 12 5 0 18 9 29 20 12 12 25 18 30 15 6 -4 10 -2 10 3 0 13 56 33
66 24 4 -4 4 -1 -1 7 -6 11 -2 13 19 9 21 -4 24 -3 15 9 -10 11 -8 12 6 7 10
-4 21 -1 26 7 7 12 9 12 9 0 0 -11 4 -9 15 5 9 12 14 14 15 6 0 -10 4 -9 16 2
8 9 20 14 25 11 5 -4 9 -1 9 6 0 6 8 9 20 6 11 -3 18 0 17 7 -1 6 4 10 11 8 6
-1 12 2 12 8 0 5 7 7 15 4 8 -4 15 -1 15 6 0 6 4 9 9 6 5 -3 11 1 15 9 3 8 12
15 21 15 8 0 15 5 15 10 0 6 7 10 15 10 8 0 15 5 15 12 0 6 3 8 6 5 4 -4 24 7
44 23 21 17 42 30 48 30 5 0 21 6 35 13 16 8 56 13 106 12 50 -1 78 2 74 9 -4
5 1 7 11 3 11 -5 15 -3 10 5 -5 7 0 9 13 6 21 -6 24 4 9 32 -4 8 1 6 11 -6 16
-18 21 -19 31 -7 7 7 18 10 24 7 6 -4 8 -3 5 3 -4 6 -1 16 7 22 8 7 17 23 20
37 4 14 11 22 16 19 6 -4 13 1 16 9 3 9 11 16 16 16 20 0 63 45 63 65 -1 23
-26 65 -38 65 -13 0 -71 62 -75 80 -2 8 -7 17 -11 20 -3 3 -15 18 -24 33 -16
24 -21 27 -35 15 -13 -11 -14 -11 -8 1 7 10 3 12 -15 6 -21 -6 -22 -5 -9 6 8
8 14 13 12 12 -2 0 -15 5 -29 12 -15 8 -30 12 -34 10 -14 -9 -90 77 -92 105
-1 10 -5 16 -9 14 -4 -3 -8 3 -8 13 0 15 -2 16 -10 3 -8 -13 -10 -12 -10 3 0
12 -4 16 -12 11 -7 -4 -10 -4 -6 1 4 4 -1 20 -11 34 -29 43 -60 109 -54 115 4
3 1 6 -6 6 -7 0 -9 5 -6 10 3 6 1 10 -5 10 -6 0 -10 6 -8 12 1 7 -3 23 -10 36
-7 12 -10 22 -6 22 3 0 1 7 -6 15 -7 8 -9 15 -5 15 4 0 2 7 -5 15 -6 8 -9 18
-6 24 3 5 1 11 -4 13 -6 2 -12 13 -13 26 0 12 -4 22 -7 22 -4 0 -7 6 -8 13 0
6 -4 32 -7 57 -3 25 -7 72 -10 105 -2 33 -5 60 -5 60 -4 0 -17 170 -21 268 -1
32 -6 60 -11 63 -4 3 -6 9 -3 14 3 5 1 28 -5 52 -20 80 -28 180 -35 478 -4
129 -8 246 -11 260 -9 51 -18 167 -18 238 -1 39 -3 72 -6 72 -3 0 -6 21 -7 48
-2 47 -10 117 -13 117 -1 0 -3 16 -5 35 -2 20 -5 50 -8 68 -3 17 -1 35 5 38 6
4 5 10 -3 15 -11 7 -11 9 -1 9 8 0 10 5 6 12 -13 20 -11 45 2 45 9 0 10 -5 4
-18 -7 -12 -6 -19 4 -22 10 -4 12 0 9 14 -3 11 0 19 7 19 7 0 10 6 7 14 -3 8
0 20 8 26 13 11 14 34 2 46 -4 4 -7 14 -7 23 0 11 3 10 15 -5 13 -18 14 -18 8
5 -5 19 -3 22 8 16 11 -7 11 -5 -1 11 -8 10 -15 20 -16 22 -1 2 -11 -1 -23 -7
-14 -8 -22 -8 -27 1 -4 6 -3 8 4 4 7 -4 10 2 9 14 -1 14 -6 19 -17 15 -11 -4
-11 -2 2 8 20 16 14 28 -10 20 -11 -3 -13 -2 -6 4 13 9 11 79 -2 76 -5 -1 -9
17 -9 40 0 42 3 45 40 31 24 -9 20 -4 -19 20 -16 10 -25 13 -22 7 4 -6 2 -11
-3 -11 -6 0 -11 7 -11 15 0 8 5 15 10 15 6 0 10 8 9 18 0 10 -3 12 -6 5 -2 -7
-9 -13 -14 -13 -6 0 -8 3 -5 8 2 4 -2 32 -10 62 -8 30 -12 61 -9 68 2 6 0 12
-4 12 -5 0 -8 8 -7 17 2 10 -1 36 -6 58 -6 22 -12 51 -14 65 -3 13 -9 27 -13
30 -6 4 -9 21 -13 68 -1 6 -4 12 -7 12 -3 0 -12 15 -20 33 -27 61 -71 152
-102 207 -17 30 -32 60 -33 65 -1 6 -12 32 -24 59 -12 27 -22 51 -22 55 -1 3
-9 24 -20 46 -20 41 -25 74 -12 76 4 0 16 3 27 6 27 7 129 7 190 -1 28 -3 118
-8 200 -10 119 -4 163 -10 210 -26 33 -12 85 -23 115 -25 30 -2 68 -8 83 -14
16 -6 33 -11 38 -11 6 0 7 -6 3 -12 -6 -10 -4 -10 8 0 11 9 18 10 23 2 3 -6
12 -7 18 -3 20 12 37 12 37 0 0 -8 3 -7 9 1 11 17 21 17 32 0 7 -11 9 -11 9 1
0 10 3 11 14 2 10 -8 16 -9 21 -1 3 6 12 7 18 3 18 -11 47 -11 47 0 0 5 8 3
17 -4 15 -12 16 -12 8 1 -8 13 -7 13 8 1 14 -11 17 -11 17 0 0 9 3 10 8 3 4
-5 24 -10 45 -10 20 1 37 -1 37 -4 0 -3 18 -4 40 -4 23 1 40 -3 40 -9 0 -6 7
-2 16 9 8 10 13 14 10 8 -3 -7 1 -15 10 -18 8 -3 13 -2 10 2 -3 5 8 9 24 9 16
0 27 -5 23 -10 -3 -5 5 -4 17 3 13 7 25 8 29 3 7 -10 48 -9 58 1 3 3 13 1 20
-6 9 -7 17 -8 21 -2 4 5 42 10 86 11 43 2 84 7 90 13 9 6 16 6 25 -3 9 -9 14
-9 20 2 7 11 9 11 14 0 4 -11 6 -11 6 -1 1 7 6 10 11 7 6 -3 10 -1 10 5 0 6 5
8 11 4 6 -3 21 -2 32 4 57 26 112 47 119 44 5 -1 8 2 8 6 0 4 8 9 18 10 21 2
66 9 112 17 19 3 60 7 90 9 30 2 55 5 55 6 0 1 27 3 60 4 137 7 231 62 288
168 51 96 57 124 63 328 3 91 6 200 8 242 1 43 5 80 8 83 3 3 2 22 -2 41 -7
31 -6 33 8 22 13 -12 14 -10 3 10 -6 12 -8 22 -3 22 11 0 12 17 15 285 2 132
6 246 10 253 5 7 3 12 -5 12 -9 0 -9 3 -2 8 6 4 11 18 11 32 2 47 7 80 14 80
4 0 5 8 2 19 -3 10 0 22 6 25 6 4 11 12 11 17 0 6 -6 7 -12 3 -10 -6 -10 -5
-1 7 9 11 11 44 9 102 -4 95 -26 153 -75 206 -25 27 -33 29 -82 27 -74 -5
-139 -14 -169 -25 -14 -5 -34 -12 -45 -17 -11 -4 -24 -8 -30 -9 -5 -1 -12 -3
-15 -4 -9 -4 -44 -11 -75 -15 -16 -3 -30 -5 -30 -6 0 -2 -19 -7 -59 -15 -16
-3 -50 -15 -75 -27 -25 -11 -52 -22 -61 -23 -8 -2 -17 -4 -20 -5 -3 -1 -8 -2
-12 -1 -5 0 -8 -3 -8 -7 0 -5 -6 -9 -12 -10 -7 0 -33 -6 -57 -12 -24 -6 -50
-9 -57 -6 -8 3 -16 1 -19 -4 -3 -6 -15 -6 -29 0 -13 5 -26 7 -29 4 -2 -3 -24
-7 -48 -9 -24 -2 -55 -6 -69 -10 -14 -3 -34 -8 -45 -9 -11 -2 -20 -4 -20 -5 0
-2 -7 -4 -15 -6 -8 -2 -26 -6 -40 -9 -14 -3 -36 -8 -50 -11 -14 -3 -56 -8 -95
-11 -66 -5 -110 -10 -110 -14 0 -2 -34 -9 -80 -16 -21 -4 -56 -12 -77 -20 -21
-7 -38 -11 -38 -7 0 3 -7 0 -15 -7 -8 -7 -15 -10 -15 -7 0 4 -21 -3 -46 -13
-25 -11 -50 -18 -55 -14 -5 3 -9 1 -9 -4 0 -5 -6 -9 -12 -10 -33 -3 -214 -13
-313 -17 -107 -4 -140 -7 -235 -21 -25 -4 -58 -8 -75 -10 -32 -2 -63 -9 -98
-20 -12 -4 -49 -9 -82 -10 -33 -2 -76 -6 -95 -9 -19 -3 -55 -8 -80 -10 -25 -2
-47 -5 -50 -6 -3 -1 -8 -1 -12 0 -5 0 -8 -3 -8 -7 0 -5 -21 -8 -46 -8 -25 1
-48 -3 -51 -7 -3 -4 -11 -3 -18 3 -10 8 -15 8 -20 0 -5 -8 -14 -6 -28 7 -18
16 -20 16 -14 1 6 -17 -15 -20 -30 -3 -4 4 -2 5 6 0 9 -5 12 -4 8 2 -4 5 -23
9 -44 7 -37 -2 -73 17 -73 38 0 6 -8 17 -18 26 -10 10 -11 13 -2 7 13 -8 13
-8 3 6 -7 9 -10 19 -6 23 4 4 -1 4 -10 0 -10 -3 -17 -3 -16 2 4 25 -2 43 -15
38 -13 -5 -31 24 -21 34 3 3 5 0 5 -6 0 -7 5 -12 11 -12 6 0 -6 19 -25 43 -25
30 -37 57 -41 88 -3 24 -8 60 -11 79 -3 19 -6 51 -8 70 -3 42 -23 118 -36 142
-6 10 -10 25 -10 33 0 8 -4 15 -10 15 -5 0 -10 9 -10 20 0 11 -4 20 -10 20 -5
0 -10 8 -10 18 0 10 -5 23 -10 28 -6 6 -12 42 -14 80 -2 38 -5 69 -6 69 -1 0
-3 11 -6 25 -9 49 -126 260 -171 308 -7 7 -26 40 -44 72 -35 67 -65 101 -154
175 -78 66 -175 166 -175 181 0 6 -7 17 -15 24 -8 7 -13 16 -10 20 3 4 -8 20
-23 36 -15 15 -20 24 -12 20 13 -7 13 -6 0 6 -8 7 -16 20 -18 28 -2 8 -7 17
-11 20 -11 7 -36 53 -33 62 1 4 -6 4 -15 1 -11 -4 -14 -3 -9 5 4 7 -1 24 -12
40 -11 15 -23 37 -26 50 -4 12 -12 22 -17 22 -6 0 -7 5 -4 10 3 6 1 10 -4 10
-6 0 -11 7 -11 15 0 9 -6 18 -14 21 -8 3 -17 17 -20 30 -4 15 -11 22 -18 18
-7 -5 -9 -2 -6 7 3 9 -5 25 -18 38 -13 13 -24 27 -24 31 0 5 -9 12 -20 15 -11
4 -17 11 -14 17 5 7 2 8 -5 4 -7 -5 -10 -15 -7 -25 5 -12 2 -11 -9 3 -8 11
-15 25 -15 30 0 6 5 4 10 -4 5 -8 10 -10 10 -5 0 20 -17 38 -24 26 -9 -15 -26
-4 -26 15 0 20 -39 53 -62 54 -10 0 -18 7 -18 17 0 9 -3 13 -7 10 -3 -4 -21
14 -40 40 -18 26 -37 50 -41 53 -4 3 -19 21 -32 40 -13 19 -32 42 -42 51 -10
9 -18 21 -18 26 0 6 -11 22 -25 37 -13 14 -22 26 -19 26 6 0 -40 52 -98 111
-25 26 -44 50 -40 53 3 3 1 6 -5 6 -5 0 -19 8 -30 18 -11 9 -42 35 -69 57 -26
22 -52 45 -59 50 -31 29 -114 95 -119 95 -6 0 -74 44 -93 60 -7 6 -15 10 -18
11 -11 0 -65 35 -65 42 0 4 -5 7 -10 7 -6 0 -20 9 -32 20 -12 11 -28 20 -35
20 -7 0 -13 5 -13 10 0 6 -7 10 -15 10 -8 0 -15 4 -15 8 0 19 -202 96 -280
107 -8 1 -28 7 -43 14 -16 6 -36 11 -46 11 -10 0 -21 3 -25 7 -3 4 -12 8 -19
9 -7 1 -30 5 -52 9 -57 9 -94 15 -140 20 -22 2 -52 6 -68 8 -15 3 -30 0 -33
-5 -3 -4 -11 -5 -17 -1 -7 4 -68 8 -137 10 -131 3 -148 4 -166 16 -6 3 -14 4
-17 1z m-1364 -184 c-3 -12 -8 -19 -11 -16 -5 6 5 36 12 36 2 0 2 -9 -1 -20z
m-27 -9 c0 -11 -6 -17 -16 -16 -8 2 -18 4 -22 4 -5 1 -8 6 -8 12 0 8 4 8 14 0
10 -9 15 -8 20 4 7 20 12 19 12 -4z m85 -4 c-10 -9 -11 -8 -5 6 3 10 9 15 12
12 3 -3 0 -11 -7 -18z m-167 5 c3 -5 -1 -9 -9 -9 -8 0 -12 4 -9 9 3 4 7 8 9 8
2 0 6 -4 9 -8z m-44 -6 c0 -3 -4 -8 -10 -11 -5 -3 -10 -1 -10 4 0 6 5 11 10
11 6 0 10 -2 10 -4z m74 -12 c3 -8 2 -12 -4 -9 -6 3 -10 10 -10 16 0 14 7 11
14 -7z m-142 -6 c-14 -14 -44 -20 -36 -7 3 5 9 7 14 4 5 -3 11 -1 15 5 3 5 9
10 13 10 3 0 1 -5 -6 -12z m42 -3 c3 -8 1 -15 -4 -15 -6 0 -10 7 -10 15 0 8 2
15 4 15 2 0 6 -7 10 -15z m81 -5 c3 -6 -1 -7 -9 -4 -18 7 -21 14 -7 14 6 0 13
-4 16 -10z m-201 -18 c3 -5 -1 -9 -9 -9 -8 0 -12 4 -9 9 3 4 7 8 9 8 2 0 6 -4
9 -8z m251 -2 c3 -6 -1 -7 -9 -4 -18 7 -21 14 -7 14 6 0 13 -4 16 -10z m-480
-20 c3 -6 -1 -7 -9 -4 -18 7 -21 14 -7 14 6 0 13 -4 16 -10z m-185 -19 c0 -6
-4 -12 -8 -15 -5 -3 -9 1 -9 9 0 8 4 15 9 15 4 0 8 -4 8 -9z m100 5 c0 -2 -7
-7 -16 -10 -8 -3 -12 -2 -9 4 6 10 25 14 25 6z m-203 -91 c0 -8 -4 -12 -9 -9
-5 3 -6 10 -3 15 9 13 12 11 12 -6z m-117 -9 c0 -3 -4 -8 -10 -11 -5 -3 -10
-1 -10 4 0 6 5 11 10 11 6 0 10 -2 10 -4z m-83 -41 c0 -8 -4 -15 -9 -15 -10 0
-11 14 -1 23 9 10 10 9 10 -8z m-82 -25 c3 -5 1 -10 -4 -10 -6 0 -11 5 -11 10
0 6 2 10 4 10 3 0 8 -4 11 -10z m-85 -45 c-6 -8 -9 -19 -5 -24 4 -7 -1 -8 -11
-4 -12 4 -15 3 -10 -5 5 -8 2 -10 -8 -6 -9 3 -16 10 -16 16 0 5 4 7 9 4 4 -3
16 3 26 14 21 23 34 27 15 5z m-58 -49 c7 4 8 2 4 -5 -9 -13 -26 -5 -25 12 0
9 2 8 6 -1 2 -6 10 -9 15 -6z m-44 -16 c-7 -10 -14 -17 -17 -15 -4 4 18 35 25
35 2 0 -1 -9 -8 -20z m-25 -24 c4 -11 1 -13 -10 -9 -11 4 -14 3 -9 -6 4 -6 4
-11 -1 -10 -4 1 -16 -1 -26 -6 -15 -6 -15 -10 -5 -24 11 -14 11 -14 -3 -4 -16
13 -29 8 -29 -9 0 -5 4 -6 10 -3 6 3 7 -1 3 -10 -3 -9 -9 -13 -12 -8 -8 11
-27 11 -38 -1 -4 -5 -3 -6 4 -2 18 10 25 -10 8 -24 -8 -7 -13 -16 -10 -20 2
-4 -7 -6 -20 -4 -22 2 -24 -1 -20 -24 4 -20 3 -22 -3 -8 -7 17 -10 16 -27 -10
-11 -16 -20 -32 -20 -36 0 -3 -4 -10 -8 -15 -5 -4 -8 -3 -7 2 6 26 -2 28 -21
5 l-21 -25 16 28 c9 15 12 27 7 27 -6 0 -15 -9 -21 -21 -7 -11 -14 -18 -18
-14 -9 8 77 85 96 85 8 0 13 2 10 5 -5 6 59 75 69 75 3 0 13 8 22 18 12 13 69
58 77 61 1 1 4 -6 7 -13z m-3 -40 c0 -2 -7 -6 -15 -10 -8 -3 -15 -1 -15 4 0 6
7 10 15 10 8 0 15 -2 15 -4z m-80 -86 c0 -5 -5 -10 -11 -10 -5 0 -7 5 -4 10 3
6 8 10 11 10 2 0 4 -4 4 -10z m-35 -40 c3 -6 -1 -7 -9 -4 -18 7 -21 14 -7 14
6 0 13 -4 16 -10z m-45 -34 c0 -2 -7 -7 -16 -10 -8 -3 -12 -2 -9 4 6 10 25 14
25 6z m-138 -68 c-6 -6 -12 -6 -17 3 -5 8 -4 10 3 5 7 -4 12 0 13 11 0 12 2
13 6 5 3 -8 1 -18 -5 -24z m-66 -43 c-1 -8 -5 -17 -8 -21 -5 -4 -4 16 1 34 3
9 9 -1 7 -13z m44 1 c-7 -7 -13 -7 -20 0 -6 6 -3 10 10 10 13 0 16 -4 10 -10z
m5035 -226 c16 -17 16 -20 3 -15 -9 4 -19 13 -22 21 -7 19 -2 18 19 -6z m123
-126 c-4 -3 -12 5 -18 18 -12 22 -12 22 6 6 10 -10 15 -20 12 -24z m32 -24 c8
-5 11 -10 5 -10 -5 0 -17 5 -25 10 -8 5 -10 10 -5 10 6 0 17 -5 25 -10z m246
-416 c1 -9 0 -13 -4 -10 -3 4 -7 14 -8 22 -1 9 0 13 4 10 3 -4 7 -14 8 -22z
m-1045 -77 c-10 -9 -11 -8 -5 6 3 10 9 15 12 12 3 -3 0 -11 -7 -18z m1240
-444 c8 -16 18 -31 24 -35 17 -13 -8 -8 -30 5 -20 12 -33 57 -17 57 5 0 15
-12 23 -27z m-6476 -23 c3 -5 1 -10 -4 -10 -6 0 -11 5 -11 10 0 6 2 10 4 10 3
0 8 -4 11 -10z m15 -36 c0 -8 -19 -13 -24 -6 -3 5 1 9 9 9 8 0 15 -2 15 -3z
m-65 -83 c-9 -8 -36 -10 -30 -2 2 4 11 8 20 8 8 0 13 -3 10 -6z m-34 -28 c13
-16 12 -17 -3 -4 -10 7 -18 15 -18 17 0 8 8 3 21 -13z m-13 -38 c-3 -3 -9 2
-12 12 -6 14 -5 15 5 6 7 -7 10 -15 7 -18z m-30 -56 c-3 -8 -7 -3 -11 10 -4
17 -3 21 5 13 5 -5 8 -16 6 -23z m7012 -444 c0 -7 -6 -15 -14 -18 -9 -4 -13 0
-11 11 2 9 4 21 4 25 1 13 21 -3 21 -18z m5 -35 c4 -6 -6 -10 -22 -10 -22 0
-25 2 -13 10 19 12 27 12 35 0z m-10605 -121 c0 -5 -4 -9 -8 -9 -5 0 -9 7 -9
15 0 8 4 12 9 9 4 -3 8 -9 8 -15z m-115 -18 c-3 -2 -16 -6 -28 -8 -15 -2 -18
0 -9 5 14 9 45 12 37 3z m-61 -19 c3 -5 -1 -9 -9 -9 -8 0 -12 4 -9 9 3 4 7 8
9 8 2 0 6 -4 9 -8z m166 2 c0 -8 -19 -13 -24 -6 -3 5 1 9 9 9 8 0 15 -2 15 -3z
m250 -4 c0 -5 -5 -10 -11 -10 -5 0 -7 5 -4 10 3 6 8 10 11 10 2 0 4 -4 4 -10z
m-340 -14 c0 -2 -7 -7 -16 -10 -8 -3 -12 -2 -9 4 6 10 25 14 25 6z m105 -66
c-3 -5 -12 -10 -18 -10 -7 0 -6 4 3 10 19 12 23 12 15 0z m-135 -34 c0 -2 -8
-10 -17 -17 -16 -13 -17 -12 -4 4 13 16 21 21 21 13z m3445 -45 c3 -5 2 -12
-3 -15 -5 -3 -9 1 -9 9 0 17 3 19 12 6z m9362 -116 c0 -8 -4 -12 -9 -9 -5 3
-6 10 -3 15 9 13 12 11 12 -6z m363 11 c0 -2 -8 -10 -17 -17 -16 -13 -17 -12
-4 4 13 16 21 21 21 13z m-1357 -30 c4 -10 0 -14 -13 -11 -11 2 -22 -1 -26 -6
-3 -6 -12 -5 -22 3 -14 11 -15 10 -9 -6 6 -16 5 -17 -8 -6 -12 10 -15 10 -16
-1 0 -10 -2 -11 -6 -1 -2 6 -9 12 -14 12 -6 0 -8 -3 -6 -7 3 -5 -16 -9 -41
-11 -45 -2 -54 5 -15 12 11 3 36 9 54 14 19 5 51 8 72 7 20 0 37 3 37 7 0 13
7 9 13 -6z m-8404 -30 c-3 -3 -11 5 -18 17 -13 21 -12 21 5 5 10 -10 16 -20
13 -22z m9512 -43 c13 -16 12 -17 -3 -4 -17 13 -22 21 -14 21 2 0 10 -8 17
-17z m134 -32 c-9 -8 -36 -10 -30 -2 2 4 11 8 20 8 8 0 13 -3 10 -6z m-445
-25 c0 -2 -8 -10 -17 -17 -16 -13 -17 -12 -4 4 13 16 21 21 21 13z m-9235 -16
c3 -6 -1 -7 -9 -4 -18 7 -21 14 -7 14 6 0 13 -4 16 -10z m-10 -70 c4 -6 10 -8
14 -6 4 3 13 1 20 -4 9 -5 3 -7 -17 -7 -17 1 -28 5 -26 9 2 3 -2 9 -8 11 -9 4
-10 6 -1 6 6 1 15 -4 18 -9z m-29 -36 c-3 -9 -6 -18 -6 -20 0 -2 -5 -4 -11 -4
-8 0 -9 4 0 13 6 8 8 17 4 20 -3 4 -1 7 6 7 8 0 11 -6 7 -16z m34 -4 c0 -5 -4
-10 -10 -10 -5 0 -10 5 -10 10 0 6 5 10 10 10 6 0 10 -4 10 -10z m9705 -10
c-3 -5 -12 -10 -18 -10 -7 0 -6 4 3 10 19 12 23 12 15 0z m90 0 c3 -5 1 -10
-4 -10 -6 0 -11 5 -11 10 0 6 2 10 4 10 3 0 8 -4 11 -10z m-9831 -35 c-24 -18
-31 -19 -31 -1 0 8 6 12 13 9 6 -2 15 1 19 7 4 6 10 9 13 6 3 -4 -3 -13 -14
-21z m-4 -40 c0 -2 -10 -9 -22 -15 -22 -11 -22 -10 -4 4 21 17 26 19 26 11z
m-2380 -25 c0 -5 -5 -10 -11 -10 -5 0 -7 5 -4 10 3 6 8 10 11 10 2 0 4 -4 4
-10z m34 -6 c3 -8 2 -12 -4 -9 -6 3 -10 10 -10 16 0 14 7 11 14 -7z m2360 8
c2 -4 -5 -9 -17 -9 -17 -2 -19 0 -7 7 18 12 18 12 24 2z m-2354 -36 c0 -3 -4
-8 -10 -11 -5 -3 -10 -1 -10 4 0 6 5 11 10 11 6 0 10 -2 10 -4z m2291 -19
c-10 -9 -11 -8 -5 6 3 10 9 15 12 12 3 -3 0 -11 -7 -18z m-2177 -13 c3 -8 2
-12 -4 -9 -6 3 -10 10 -10 16 0 14 7 11 14 -7z m76 -18 c0 -2 -7 -7 -16 -10
-8 -3 -12 -2 -9 4 6 10 25 14 25 6z m-70 -12 c0 -8 -19 -13 -24 -6 -3 5 1 9 9
9 8 0 15 -2 15 -3z m100 -4 c0 -5 -4 -10 -10 -10 -5 0 -10 5 -10 10 0 6 5 10
10 10 6 0 10 -4 10 -10z m40 -5 c0 -2 -10 -9 -22 -15 -22 -11 -22 -10 -4 4 21
17 26 19 26 11z m-110 -10 c0 -2 -6 -8 -13 -14 -10 -8 -14 -7 -14 2 0 8 6 14
14 14 7 0 13 -1 13 -2z m26 -31 c0 -13 -2 -22 -5 -19 -3 3 -6 17 -7 31 0 13 2
22 5 19 3 -3 6 -17 7 -31z m124 22 c-6 -6 -3 -14 8 -23 15 -13 14 -13 -6 -3
-13 6 -20 16 -16 22 5 8 1 9 -10 5 -9 -4 -15 -3 -11 2 3 6 14 9 25 8 13 -1 16
-5 10 -11z m40 0 c0 -3 -4 -8 -10 -11 -5 -3 -10 -1 -10 4 0 6 5 11 10 11 6 0
10 -2 10 -4z m-235 -16 c-3 -5 -12 -10 -18 -10 -7 0 -6 4 3 10 19 12 23 12 15
0z m125 -20 c12 -7 10 -9 -8 -7 -12 0 -22 5 -22 9 0 11 12 10 30 -2z m-116
-18 c3 -5 -1 -9 -9 -9 -8 0 -12 4 -9 9 3 4 7 8 9 8 2 0 6 -4 9 -8z m42 -7 c-1
-8 -5 -17 -8 -21 -5 -4 -4 16 1 34 3 9 9 -1 7 -13z m154 11 c0 -2 -8 -10 -17
-17 -16 -13 -17 -12 -4 4 13 16 21 21 21 13z m-115 -26 c3 -5 1 -10 -4 -10 -6
0 -11 5 -11 10 0 6 2 10 4 10 3 0 8 -4 11 -10z m12653 -740 c-7 -10 -14 -17
-17 -15 -4 4 18 35 25 35 2 0 -1 -9 -8 -20z m-14548 0 c0 -5 -2 -10 -4 -10 -3
0 -8 5 -11 10 -3 6 -1 10 4 10 6 0 11 -4 11 -10z m275 -79 c3 -5 2 -12 -3 -15
-5 -3 -9 1 -9 9 0 17 3 19 12 6z m602 -106 c0 -8 -4 -12 -9 -9 -5 3 -6 10 -3
15 9 13 12 11 12 -6z m98 5 c3 -5 1 -10 -4 -10 -6 0 -11 5 -11 10 0 6 2 10 4
10 3 0 8 -4 11 -10z m-84 -37 c-12 -20 -14 -14 -5 12 4 9 9 14 11 11 3 -2 0
-13 -6 -23z m-156 7 c3 -6 -1 -7 -9 -4 -18 7 -21 14 -7 14 6 0 13 -4 16 -10z
m225 -11 c0 -5 -4 -9 -8 -9 -5 0 -9 7 -9 15 0 8 4 12 9 9 4 -3 8 -9 8 -15z
m-323 -4 c0 -8 -4 -12 -9 -9 -5 3 -6 10 -3 15 9 13 12 11 12 -6z m283 5 c0 -5
-5 -10 -11 -10 -5 0 -7 5 -4 10 3 6 8 10 11 10 2 0 4 -4 4 -10z m-105 -10 c-3
-5 -16 -10 -28 -9 -20 1 -20 2 3 9 14 4 26 8 28 9 2 1 0 -3 -3 -9z m1230 -50
c-3 -5 -12 -10 -18 -10 -7 0 -6 4 3 10 19 12 23 12 15 0z m155 -36 c0 -8 -19
-13 -24 -6 -3 5 1 9 9 9 8 0 15 -2 15 -3z m9871 -431 c13 -16 12 -17 -3 -4
-10 7 -18 15 -18 17 0 8 8 3 21 -13z m59 -87 c0 -2 -8 -10 -17 -17 -16 -13
-17 -12 -4 4 13 16 21 21 21 13z m80 0 c0 -2 -8 -10 -17 -17 -16 -13 -17 -12
-4 4 13 16 21 21 21 13z m-40 -80 c0 -2 -8 -10 -17 -17 -16 -13 -17 -12 -4 4
13 16 21 21 21 13z m60 -2 c0 -8 -19 -13 -24 -6 -3 5 1 9 9 9 8 0 15 -2 15 -3z
m-10 -64 c0 -5 -2 -10 -4 -10 -3 0 -8 5 -11 10 -3 6 -1 10 4 10 6 0 11 -4 11
-10z m-5 -29 c3 -5 2 -12 -3 -15 -5 -3 -9 1 -9 9 0 17 3 19 12 6z m-221 -309
c3 -5 -1 -9 -9 -9 -8 0 -12 4 -9 9 3 4 7 8 9 8 2 0 6 -4 9 -8z m517 -101 c-6
-4 -17 -15 -24 -26 -11 -14 -16 -15 -22 -5 -5 9 -4 11 3 6 7 -4 12 -3 12 3 0
5 -3 11 -7 14 -5 2 -3 2 4 1 6 -2 14 4 17 12 3 9 11 12 17 8 8 -5 8 -8 0 -13z
m-5 -53 c4 -7 3 -8 -4 -4 -7 4 -12 2 -12 -3 0 -6 5 -11 12 -11 6 0 4 -7 -5
-18 -10 -10 -14 -22 -10 -26 4 -4 -1 -4 -11 0 -13 5 -14 9 -5 14 6 5 9 17 6
28 -2 12 0 23 7 26 6 2 12 5 13 5 1 1 5 -4 9 -11z m-422 -86 c3 -5 -1 -9 -9
-9 -8 0 -12 4 -9 9 3 4 7 8 9 8 2 0 6 -4 9 -8z m266 -197 c0 -2 -6 -8 -13 -14
-10 -8 -14 -7 -14 2 0 8 6 14 14 14 7 0 13 -1 13 -2z m5 -45 c3 -5 2 -10 -4
-10 -5 0 -13 5 -16 10 -3 6 -2 10 4 10 5 0 13 -4 16 -10z m10 -80 c3 -6 -1 -7
-9 -4 -18 7 -21 14 -7 14 6 0 13 -4 16 -10z m-10 -40 c3 -5 1 -10 -4 -10 -6 0
-11 5 -11 10 0 6 2 10 4 10 3 0 8 -4 11 -10z m2 -42 c2 -17 0 -19 -7 -8 -5 8
-6 18 -4 22 8 12 10 10 11 -14z m17 -36 c3 -5 -1 -9 -9 -9 -8 0 -12 4 -9 9 3
4 7 8 9 8 2 0 6 -4 9 -8z m6 -36 c0 -2 -7 -7 -16 -10 -8 -3 -12 -2 -9 4 6 10
25 14 25 6z m-1845 -786 c3 -5 1 -10 -4 -10 -6 0 -11 5 -11 10 0 6 2 10 4 10
3 0 8 -4 11 -10z m-21 -106 c3 -8 2 -12 -4 -9 -6 3 -10 10 -10 16 0 14 7 11
14 -7z m46 -19 c0 -12 -19 -12 -23 0 -4 9 -1 12 9 8 7 -3 14 -7 14 -8z m-7440
-15 c0 -5 -2 -10 -4 -10 -3 0 -8 5 -11 10 -3 6 -1 10 4 10 6 0 11 -4 11 -10z
m7391 -34 c-10 -12 -8 -15 7 -20 23 -8 22 -50 -1 -54 -9 -2 -17 -8 -17 -13 0
-6 4 -8 9 -4 5 3 13 1 16 -5 4 -6 1 -9 -7 -8 -7 2 -14 -7 -16 -20 -3 -20 -6
-21 -20 -10 -14 11 -14 11 -5 -6 7 -12 7 -31 1 -55 -5 -20 -10 -44 -11 -53 -1
-10 -5 -18 -9 -18 -4 0 -8 -9 -8 -20 0 -11 -4 -20 -9 -20 -6 0 -8 -9 -6 -20 2
-11 0 -18 -5 -15 -4 3 -11 -1 -14 -7 -3 -7 -2 1 1 17 4 17 7 38 7 48 0 9 3 17
6 17 4 0 7 6 7 13 3 44 8 65 15 61 4 -3 8 5 9 18 0 13 3 32 5 43 3 11 5 28 5
38 0 9 8 17 17 17 12 0 13 3 4 12 -6 6 -8 17 -3 27 5 9 7 24 6 34 -2 10 1 14
8 10 7 -4 8 0 3 13 -6 15 -5 16 5 7 10 -10 10 -15 0 -27z m39 0 c0 -3 -4 -8
-10 -11 -5 -3 -10 -1 -10 4 0 6 5 11 10 11 6 0 10 -2 10 -4z m1807 -201 c0 -8
-4 -12 -9 -9 -5 3 -6 10 -3 15 9 13 12 11 12 -6z m683 -1003 c0 -5 -7 -9 -15
-9 -8 0 -12 4 -9 9 3 4 9 8 15 8 5 0 9 -4 9 -8z m25 -51 c-6 -5 -25 10 -25 20
0 5 6 4 14 -3 8 -7 12 -15 11 -17z m-255 15 c0 -2 -8 -10 -17 -17 -16 -13 -17
-12 -4 4 13 16 21 21 21 13z m-59 -133 c13 -16 12 -17 -3 -4 -10 7 -18 15 -18
17 0 8 8 3 21 -13z m269 -27 c0 -3 -4 -8 -10 -11 -5 -3 -10 -1 -10 4 0 6 5 11
10 11 6 0 10 -2 10 -4z m40 -127 c0 8 3 11 7 8 9 -9 -27 -48 -38 -41 -5 3 -9
-1 -9 -8 0 -10 -3 -9 -9 2 -11 16 -4 33 10 25 5 -4 12 1 15 10 6 13 8 14 15 3
7 -11 9 -10 9 1z m-103 -65 c-3 -3 -12 -4 -19 -1 -8 3 -5 6 6 6 11 1 17 -2 13
-5z m-9920 -129 c0 -8 -4 -12 -9 -9 -5 3 -6 10 -3 15 9 13 12 11 12 -6z m9080
-247 c-3 -8 -6 -5 -6 6 -1 11 2 17 5 13 3 -3 4 -12 1 -19z m-14 -13 c4 -8 3
-16 -1 -19 -4 -3 -9 4 -9 15 -2 23 3 25 10 4z m-106 -60 c0 -8 -4 -15 -9 -15
-10 0 -11 14 -1 23 9 10 10 9 10 -8z m-74 -50 c-3 -9 -8 -14 -10 -11 -3 3 -2
9 2 15 9 16 15 13 8 -4z m-28 -16 c-4 -5 -12 -9 -18 -8 -9 0 -8 2 1 6 6 2 9
10 6 15 -4 7 -2 8 5 4 6 -4 9 -12 6 -17z m67 7 c7 4 8 2 4 -5 -9 -13 -26 -5
-25 12 0 9 2 8 6 -1 2 -6 10 -9 15 -6z m53 4 c3 -5 1 -10 -4 -10 -6 0 -11 5
-11 10 0 6 2 10 4 10 3 0 8 -4 11 -10z m-845 -247 c-14 -9 -29 -22 -33 -27 -5
-7 -7 -4 -3 7 4 14 1 16 -19 13 -14 -3 -23 -1 -20 4 3 5 19 7 35 5 16 -2 32 0
35 6 4 5 11 9 18 9 6 0 0 -8 -13 -17z m-62 -40 c-6 -7 -17 -13 -24 -13 -8 0
-14 -6 -14 -12 0 -10 -3 -9 -9 1 -7 11 -10 9 -16 -8 -3 -11 -13 -21 -21 -21
-8 0 -14 -5 -14 -11 0 -5 -5 -7 -10 -4 -6 3 -13 -1 -16 -9 -3 -9 -9 -14 -14
-11 -4 2 -16 -2 -26 -10 -10 -8 -23 -15 -28 -15 -6 0 -2 6 9 13 12 9 15 19 10
28 -7 12 -6 12 7 1 13 -10 17 -10 22 3 3 8 9 15 13 14 30 -5 35 2 17 24 -10
12 -12 16 -4 10 19 -18 33 -16 26 3 -3 9 -2 12 5 9 6 -4 8 -14 5 -22 -3 -8 -1
-11 4 -8 6 3 10 13 10 21 0 8 6 14 13 13 23 -3 38 1 33 9 -2 4 4 8 14 8 14 0
16 -3 8 -13z m-212 -108 c-3 -10 1 -15 11 -15 9 0 14 -3 10 -6 -12 -12 -37 5
-31 21 3 8 8 15 11 15 3 0 3 -7 -1 -15z m-25 -34 c5 8 9 9 9 3 0 -6 -6 -16
-13 -22 -10 -8 -13 -6 -14 11 0 12 1 16 4 8 5 -11 7 -11 14 0z m-40 -34 c-10
-9 -11 -8 -5 6 3 10 9 15 12 12 3 -3 0 -11 -7 -18z m-31 -7 c0 -5 -5 -10 -11
-10 -5 0 -7 5 -4 10 3 6 8 10 11 10 2 0 4 -4 4 -10z m-7466 -166 c3 -8 2 -12
-4 -9 -6 3 -10 10 -10 16 0 14 7 11 14 -7z m544 -219 c-3 -3 -9 2 -12 12 -6
14 -5 15 5 6 7 -7 10 -15 7 -18z m-15 -49 c11 1 16 0 13 -4 -13 -12 -36 -10
-48 6 -11 15 -11 15 2 6 8 -6 23 -10 33 -8z m-343 -36 c0 -5 -2 -10 -4 -10 -3
0 -8 5 -11 10 -3 6 -1 10 4 10 6 0 11 -4 11 -10z m493 -10 c-3 -12 -8 -19 -11
-16 -5 6 5 36 12 36 2 0 2 -9 -1 -20z m107 -14 c0 -2 -7 -7 -16 -10 -8 -3 -12
-2 -9 4 6 10 25 14 25 6z m794 -272 c3 -8 2 -12 -4 -9 -6 3 -10 10 -10 16 0
14 7 11 14 -7z m566 -314 c0 -5 -2 -10 -4 -10 -3 0 -8 5 -11 10 -3 6 -1 10 4
10 6 0 11 -4 11 -10z m80 6 c0 -3 -4 -8 -10 -11 -5 -3 -10 -1 -10 4 0 6 5 11
10 11 6 0 10 -2 10 -4z m4210 -80 c0 -2 -8 -10 -17 -17 -16 -13 -17 -12 -4 4
13 16 21 21 21 13z m-90 -66 c0 -5 -5 -10 -11 -10 -5 0 -7 5 -4 10 3 6 8 10
11 10 2 0 4 -4 4 -10z m-4045 -40 c3 -5 1 -10 -4 -10 -6 0 -11 5 -11 10 0 6 2
10 4 10 3 0 8 -4 11 -10z m4065 6 c0 -2 -7 -9 -15 -16 -13 -11 -14 -10 -9 4 5
14 24 23 24 12z m-36 -32 c3 -8 2 -12 -4 -9 -6 3 -10 2 -10 -3 0 -18 -103
-137 -117 -136 -9 1 -11 -2 -4 -10 7 -8 3 -20 -12 -37 -12 -14 -23 -30 -25
-38 -1 -7 -11 -22 -22 -34 -11 -11 -20 -24 -20 -28 0 -14 -47 -55 -58 -51 -7
2 -12 -1 -12 -6 0 -6 -17 -16 -37 -23 -21 -6 -42 -15 -48 -19 -11 -8 -103 -39
-120 -41 -5 0 -16 -5 -22 -11 -7 -6 -13 -8 -13 -4 0 4 -13 0 -30 -9 -16 -9
-30 -13 -30 -10 0 4 -6 3 -12 -2 -7 -4 -22 -9 -33 -10 -16 -2 -17 -1 -5 6 8 5
18 7 22 5 4 -3 8 -1 8 5 0 5 14 12 30 16 17 4 28 10 25 15 -3 5 3 7 12 5 10
-1 29 4 41 12 13 8 26 12 29 10 7 -7 43 25 38 33 -3 4 8 5 23 2 15 -3 24 -1
20 2 -8 9 24 45 34 39 11 -5 88 45 88 58 0 5 -6 7 -12 3 -8 -4 -9 -3 -5 2 5 5
16 9 25 9 9 0 17 5 18 10 0 6 8 26 18 45 16 33 17 19 1 -25 -4 -11 3 -5 15 13
19 28 20 35 9 50 -10 12 -7 12 10 -3 21 -17 24 -18 18 -2 -4 9 -2 17 4 17 6 0
7 5 4 10 -3 6 0 10 7 10 8 0 23 7 34 16 10 8 14 13 7 10 -6 -4 -15 -1 -19 5
-4 8 -3 9 4 5 7 -4 12 -1 12 6 0 9 3 9 10 -2 5 -8 10 -12 10 -7 0 16 4 22 18
33 10 7 12 16 7 25 -7 12 -6 12 7 1 13 -10 17 -10 21 2 3 7 0 19 -6 25 -9 9
-8 11 5 6 12 -5 20 -1 24 9 8 20 10 20 18 0z m-128 -69 c1 -8 -2 -15 -6 -15
-5 0 -8 9 -7 20 1 21 10 18 13 -5z m-56 -45 c0 -5 -2 -10 -4 -10 -3 0 -8 5
-11 10 -3 6 -1 10 4 10 6 0 11 -4 11 -10z m44 2 c2 -4 -4 -8 -14 -8 -10 0 -16
4 -14 8 3 4 9 8 14 8 5 0 11 -4 14 -8z m-3489 -181 c-9 -8 -36 -10 -30 -2 2 4
11 8 20 8 8 0 13 -3 10 -6z m-134 -106 c5 4 6 -2 2 -12 -6 -15 -5 -16 9 -5 16
13 17 11 8 -28 0 -3 -9 5 -19 17 -10 12 -22 19 -25 15 -4 -3 -4 2 0 13 5 11 9
14 12 7 2 -7 8 -10 13 -7z m255 -13 c-3 -3 0 -12 6 -21 10 -13 10 -14 -2 -4
-16 15 -23 46 -8 37 5 -3 7 -9 4 -12z m50 -4 c3 -4 -1 -5 -10 -4 -8 1 -18 5
-22 8 -3 4 1 5 10 4 8 -1 18 -5 22 -8z m29 -35 c-1 -10 2 -23 7 -30 13 -16
-18 -11 -35 6 -9 10 -9 12 3 9 8 -2 15 3 16 10 2 19 4 22 8 22 2 0 3 -8 1 -17z
m-25 3 c0 -2 -9 -6 -20 -9 -11 -3 -18 -1 -14 4 5 9 34 13 34 5z m-113 -98 c-3
-8 -6 -5 -6 6 -1 11 2 17 5 13 3 -3 4 -12 1 -19z m333 -169 c0 8 3 12 6 8 3
-3 3 -11 -1 -17 -8 -13 -35 5 -35 23 0 6 7 2 15 -9 10 -13 14 -15 15 -5z m60
-19 c0 -5 -2 -10 -4 -10 -3 0 -8 5 -11 10 -3 6 -1 10 4 10 6 0 11 -4 11 -10z
m34 2 c3 -5 -1 -9 -9 -9 -8 0 -12 4 -9 9 3 4 7 8 9 8 2 0 6 -4 9 -8z"/>
<path d="M5685 13062 c3 -3 -3 -11 -13 -19 -15 -13 -15 -13 5 -3 28 13 37 27
18 27 -8 0 -13 -3 -10 -5z"/>
<path d="M5585 12981 c-10 -17 12 -21 25 -6 10 12 10 15 -3 15 -9 0 -18 -4
-22 -9z"/>
<path d="M10587 6006 c-6 -16 1 -26 19 -26 7 0 10 8 7 20 -6 23 -19 26 -26 6z"/>
<path d="M10573 5945 c0 -8 4 -12 9 -9 5 3 6 10 3 15 -9 13 -12 11 -12 -6z"/>
<path d="M4010 10439 c0 -5 5 -7 10 -4 6 3 10 8 10 11 0 2 -4 4 -10 4 -5 0
-10 -5 -10 -11z"/>
<path d="M522 8689 c10 -5 15 -17 12 -27 -5 -14 -4 -14 4 -2 12 16 -2 40 -22
40 -6 0 -3 -5 6 -11z"/>
<path d="M2027 8639 c7 -7 15 -10 18 -7 3 3 -2 9 -12 12 -14 6 -15 5 -6 -5z"/>
<path d="M12573 7892 c0 -12 5 -22 9 -22 11 0 10 12 -2 30 -7 12 -9 10 -7 -8z"/>
<path d="M12533 7836 c0 -8 8 -11 20 -8 14 4 16 7 5 13 -19 12 -25 11 -25 -5z"/>
<path d="M12580 7826 c0 -2 7 -6 15 -10 8 -3 15 -1 15 4 0 6 -7 10 -15 10 -8
0 -15 -2 -15 -4z"/>
<path d="M12544 7809 c-4 -7 4 -20 17 -30 24 -19 24 -20 5 -34 -11 -8 -14 -15
-8 -15 7 0 11 -3 11 -7 -1 -5 0 -11 1 -15 1 -5 3 -17 4 -28 0 -11 4 -20 9 -20
4 0 11 0 16 0 19 0 20 31 1 47 -18 16 -18 18 -3 35 15 16 12 32 -5 34 -18 2
-42 17 -42 26 0 5 5 6 10 3 6 -3 10 -1 10 4 0 14 -17 14 -26 0z m42 -67 c-17
-16 -18 -16 -5 5 7 12 15 20 18 17 3 -2 -3 -12 -13 -22z m13 -69 c-15 -17 -20
-17 -13 2 4 8 0 23 -7 33 -11 14 -9 13 9 -2 17 -15 19 -22 11 -33z"/>
<path d="M12580 7800 c0 -5 5 -10 11 -10 5 0 7 5 4 10 -3 6 -8 10 -11 10 -2 0
-4 -4 -4 -10z"/>
<path d="M12550 7760 c0 -5 5 -10 10 -10 6 0 10 5 10 10 0 6 -4 10 -10 10 -5
0 -10 -4 -10 -10z"/>
<path d="M12609 7733 c-13 -17 -13 -17 6 -3 11 8 22 16 24 17 2 2 0 3 -6 3 -6
0 -17 -8 -24 -17z"/>
<path d="M12057 3916 c-9 -7 -28 -12 -41 -11 -14 2 -27 -3 -30 -12 -3 -8 -10
-12 -15 -8 -5 3 -13 0 -17 -6 -4 -8 -9 -7 -15 2 -7 11 -9 11 -9 -1 0 -13 -1
-13 -11 0 -8 12 -9 9 -4 -10 5 -24 5 -24 -10 3 -15 26 -18 27 -33 14 -9 -9
-21 -17 -27 -19 -16 -5 -15 -35 2 -49 15 -13 15 -12 5 7 -9 18 -8 25 5 35 14
12 15 11 8 -11 -7 -24 -7 -24 9 -5 17 22 21 14 7 -14 -8 -14 -5 -17 24 -17 24
0 31 4 27 15 -4 10 -1 12 9 6 11 -6 12 -5 2 6 -18 19 -16 34 3 18 8 -7 13 -21
11 -31 -3 -10 -1 -16 4 -12 5 3 9 12 9 20 0 17 11 18 30 2 12 -11 12 -10 1 5
-8 9 -10 21 -6 25 4 4 10 1 12 -6 3 -6 9 -10 14 -6 11 6 12 24 2 23 -5 -1 -15
-1 -23 0 -13 1 -13 2 0 11 8 5 19 5 25 1 13 -10 26 -8 50 6 11 7 14 13 7 13
-7 0 -10 5 -7 10 8 13 4 12 -18 -4z m-164 -40 c4 -10 1 -13 -8 -9 -8 3 -12 9
-9 14 7 12 11 11 17 -5z m86 -13 c-6 -7 -15 -10 -20 -7 -13 8 -3 21 15 21 12
0 13 -4 5 -14z m-55 -28 c-5 -12 -34 -17 -34 -5 0 11 9 17 24 17 8 0 12 -6 10
-12z"/>
<path d="M11790 3850 c-8 -5 -10 -10 -5 -10 6 0 17 5 25 10 8 5 11 10 5 10 -5
0 -17 -5 -25 -10z"/>
<path d="M11801 3816 c-8 -10 -9 -16 -1 -21 6 -4 9 -1 8 7 -2 7 3 12 10 10 8
-1 11 2 7 8 -8 13 -10 13 -24 -4z"/>
<path d="M3840 2895 c-7 -9 -11 -17 -9 -20 3 -2 10 5 17 15 14 24 10 26 -8 5z"/>
<path d="M3942 2886 c6 -14 17 -27 24 -30 9 -3 5 7 -8 24 -26 36 -31 38 -16 6z"/>
<path d="M3870 2879 c0 -5 5 -7 10 -4 6 3 10 8 10 11 0 2 -4 4 -10 4 -5 0 -10
-5 -10 -11z"/>
<path d="M4090 2842 c0 -5 7 -9 15 -9 8 0 12 4 9 9 -3 4 -9 8 -15 8 -5 0 -9
-4 -9 -8z"/>
<path d="M3876 2802 c-3 -5 1 -9 9 -9 8 0 12 4 9 9 -3 4 -7 8 -9 8 -2 0 -6 -4
-9 -8z"/>
<path d="M4014 2802 c4 -3 14 -7 22 -8 9 -1 13 0 10 4 -4 3 -14 7 -22 8 -9 1
-13 0 -10 -4z"/>
<path d="M4090 2779 c0 -5 5 -7 10 -4 6 3 10 8 10 11 0 2 -4 4 -10 4 -5 0 -10
-5 -10 -11z"/>
<path d="M5777 1999 c4 -13 8 -18 11 -10 2 7 -1 18 -6 23 -8 8 -9 4 -5 -13z"/>
<path d="M5850 1911 c0 -5 7 -12 16 -15 14 -5 15 -4 4 9 -14 17 -20 19 -20 6z"/>
<path d="M5915 1829 c-10 -15 3 -25 16 -12 7 7 7 13 1 17 -6 3 -14 1 -17 -5z"/>
<path d="M6070 1716 c0 -2 7 -7 16 -10 8 -3 12 -2 9 4 -6 10 -25 14 -25 6z"/>
<path d="M6150 1620 c0 -5 5 -10 10 -10 6 0 10 5 10 10 0 6 -4 10 -10 10 -5 0
-10 -4 -10 -10z"/>
<path d="M6210 1605 c0 -8 4 -15 10 -15 5 0 7 7 4 15 -4 8 -8 15 -10 15 -2 0
-4 -7 -4 -15z"/>
</g>
</svg>
